# xmcd CD database file
#
# Track frame offsets:
#	150
#	13331
#	28062
#	43552
#	55055
#	65394
#	72363
#	88987
#	106631
#	120980
#	134883
#	145579
#	157560
#	174548
#
# Disc length: 2476 seconds
#
# Revision: 2
# Processed by: cddbd v1.5.2PL0 Copyright (c) Steve Scherf et al.
# Submitted via: CDex 1.70beta2
#
DISCID=b909aa0e
DTITLE=Staple Singers - We'll Get Over
DYEAR=1970
DGENRE=R&B/Soul
TTITLE0=We'll Get Over (Banks-Crutcher-Jackson)
TTITLE1=Give A Damn (Scharf-Dorough)
TTITLE2=Everyday People (Stewart-Sylvester)
TTITLE3=The End Of Our Road (Whitfield-Strong-Penzabene)
TTITLE4=Tend To Your Own Business (Staples-Roebuck)
TTITLE5=Solon Bushi (Japanese Folk Song) (Arr. Pervis Staples)
TTITLE6=The Challenge (Banks-Crutcher-Jackson)
TTITLE7=God Bless The Children (Holyday)
TTITLE8=Games People Play (Joe South)
TTITLE9=A Wednesday In Your Garden (Bachman)
TTITLE10=The Gardner (Banks-Crutcher-Jackson)
TTITLE11=When Will We Be Payed (R.Stewart)
TTITLE12=Brand New Day  (Al Kooper) (Theme From "The Landlord")
TTITLE13=Who Took The Merry Out Of Christmas
EXTD=© 2004\nLabel: Stax Records (Fantasy Inc.]\nSCD24 8532-2\n24 BIT Remastered with 2 Bonus Tracks YEAR: 1970
EXTT0=
EXTT1=
EXTT2=
EXTT3=
EXTT4=
EXTT5=
EXTT6=
EXTT7=
EXTT8=
EXTT9=
EXTT10=
EXTT11=
EXTT12=
EXTT13=
PLAYORDER=
